<?xml version="1.0" encoding="UTF-8"?>
<svg id="Capa_1" data-name="Capa 1" xmlns="http://www.w3.org/2000/svg" viewBox="0 0 765.58 206.21">
  <defs>
    <style>
      .cls-1 {
        fill: #111110;
      }
    </style>
  </defs>
  <g>
    <path class="cls-1" d="m45.11,154.67l7.08-10.81c3.95,3.31,8.41,4.97,13.38,4.97,3,0,4.49-.86,4.49-2.58,0-.96-.8-1.8-2.39-2.53-1.6-.73-3.51-1.49-5.74-2.25-2.23-.76-4.48-1.7-6.74-2.82-2.26-1.11-4.19-2.75-5.79-4.93-1.6-2.16-2.39-4.75-2.39-7.74,0-4.91,1.93-8.73,5.79-11.47,3.86-2.75,8.75-4.12,14.68-4.12,7.07,0,12.94,1.88,17.59,5.64l-5.64,11.48c-1.4-1.15-3.3-2.11-5.69-2.87-2.39-.76-4.63-1.14-6.74-1.14-3.06,0-4.59.79-4.59,2.39,0,.76.58,1.48,1.72,2.15,1.14.67,2.56,1.24,4.25,1.73,1.69.47,3.54,1.14,5.55,2.01,2.01.86,3.86,1.81,5.54,2.86s3.11,2.55,4.26,4.5,1.72,4.16,1.72,6.64c0,4.72-1.83,8.59-5.5,11.62-3.66,3.03-8.59,4.54-14.77,4.54-7.97,0-14.66-2.42-20.08-7.26Z"/>
    <path class="cls-1" d="m91.1,136.12c0-7.4,2.33-13.53,6.98-18.41,4.65-4.87,10.87-7.31,18.64-7.31,7.08,0,12.64,2.22,16.69,6.64,4.05,4.44,6.07,10.15,6.07,17.16,0,1.14-.13,2.87-.38,5.16h-31.07c.57,2.87,1.93,5.06,4.06,6.55,2.14,1.5,4.61,2.25,7.41,2.25,4.08,0,8.61-1.66,13.58-4.97l6.12,11.57c-2.61,2.23-5.82,3.98-9.61,5.26-3.79,1.27-7.6,1.91-11.43,1.91-8.35,0-14.95-2.54-19.79-7.65-4.84-5.1-7.26-11.15-7.26-18.16Zm17.3-6.22h14.73c0-2.1-.62-3.86-1.87-5.26-1.24-1.4-2.88-2.1-4.92-2.1-4.21,0-6.86,2.45-7.94,7.36Z"/>
    <path class="cls-1" d="m148.08,160.79v-49.24h15.87v4.3l-.19,3.06h.19c3.38-5.67,8.61-8.51,15.68-8.51,11.79,0,17.69,6.15,17.69,18.46v31.93h-16.54v-28.88c0-4.33-1.82-6.5-5.45-6.5s-6.17,1.24-7.99,3.73c-1.81,2.48-2.72,5.61-2.72,9.37v22.28h-16.54Z"/>
    <path class="cls-1" d="m210.8,142.62v-17.3h-6.31v-12.91h6.79v-14.15h16.06v14.15h10.33v12.91h-10.33v15.11c0,4.2,2.93,6.31,8.8,6.31.77,0,1.5-.03,2.2-.1v14.35c-2.49.19-3.99.28-4.49.28-1.53,0-3.02-.08-4.45-.23-1.44-.16-3.09-.47-4.97-.91-1.88-.44-3.57-1.11-5.07-2.01s-2.91-1.99-4.25-3.3-2.39-3.01-3.16-5.11c-.77-2.11-1.15-4.47-1.15-7.08Z"/>
    <path class="cls-1" d="m247.23,160.79v-49.24h16.54v49.24h-16.54Zm.19-55.46v-12.91h16.16v12.91h-16.16Z"/>
    <path class="cls-1" d="m274.86,160.79v-49.24h15.87v4.3l-.19,3.06h.19c3.38-5.67,8.61-8.51,15.68-8.51,11.79,0,17.69,6.15,17.69,18.46v31.93h-16.54v-28.88c0-4.33-1.82-6.5-5.45-6.5s-6.17,1.24-7.99,3.73c-1.81,2.48-2.72,5.61-2.72,9.37v22.28h-16.54Z"/>
    <path class="cls-1" d="m331.94,136.12c0-7.4,2.33-13.53,6.98-18.41,4.65-4.87,10.87-7.31,18.64-7.31,7.08,0,12.64,2.22,16.69,6.64,4.05,4.44,6.07,10.15,6.07,17.16,0,1.14-.13,2.87-.38,5.16h-31.07c.57,2.87,1.93,5.06,4.06,6.55,2.14,1.5,4.61,2.25,7.41,2.25,4.08,0,8.61-1.66,13.58-4.97l6.12,11.57c-2.61,2.23-5.82,3.98-9.61,5.26-3.79,1.27-7.6,1.91-11.43,1.91-8.35,0-14.95-2.54-19.79-7.65-4.84-5.1-7.26-11.15-7.26-18.16Zm17.3-6.22h14.73c0-2.1-.62-3.86-1.87-5.26-1.24-1.4-2.88-2.1-4.92-2.1-4.21,0-6.86,2.45-7.94,7.36Z"/>
    <path class="cls-1" d="m388.83,142.62v-50.2h16.54v48c0,2.42.3,4.08.91,4.97.6.89,1.83,1.34,3.68,1.34.83,0,1.5-.03,2.01-.1v14.35c-2.3.19-3.95.28-4.97.28-2.55,0-4.77-.2-6.64-.61-1.88-.42-3.76-1.23-5.64-2.44-1.88-1.21-3.33-3.12-4.35-5.73s-1.53-5.9-1.53-9.85Z"/>
  </g>
  <g>
    <path class="cls-1" d="m515.94,136.12c0-7.01,2.47-13.06,7.41-18.12,4.94-5.07,11.62-7.6,20.03-7.6,3.7,0,7.31.62,10.85,1.87,3.54,1.24,6.45,3.1,8.75,5.59l-6.98,11.09c-3.31-3.18-7.17-4.78-11.57-4.78-3.7,0-6.58,1.16-8.65,3.49s-3.1,5.09-3.1,8.27,1.08,6.11,3.25,8.56c2.17,2.45,5.19,3.68,9.08,3.68,4.4,0,8.89-1.98,13.48-5.93l6.02,11.57c-2.42,2.48-5.53,4.46-9.32,5.93-3.79,1.46-7.73,2.19-11.81,2.19-8.42,0-15.09-2.51-20.03-7.55-4.94-5.03-7.41-11.13-7.41-18.26Z"/>
    <path class="cls-1" d="m568.05,146.92c0-3.12.86-5.83,2.58-8.12,1.72-2.3,4-4.05,6.84-5.26s5.79-2.09,8.85-2.63c3.06-.54,6.24-.81,9.56-.81h1.44v-.86c0-3.63-2.33-5.45-6.98-5.45-4.33,0-8.86,1.56-13.58,4.68l-5.73-11.66c2.23-1.73,5.3-3.22,9.22-4.5s7.79-1.91,11.62-1.91c6.82,0,12.19,1.79,16.11,5.35,3.92,3.57,5.88,8.48,5.88,14.73v30.31h-15.11v-2.96l.19-3.06h-.19c-1.6,2.23-3.72,3.98-6.36,5.26-2.65,1.27-5.4,1.91-8.27,1.91-4.72,0-8.57-1.43-11.57-4.3-3-2.86-4.49-6.43-4.49-10.71Zm16.35-1.53c0,1.21.42,2.21,1.24,3.01.82.79,1.97,1.19,3.44,1.19,2.3,0,4.27-.92,5.93-2.77s2.49-3.83,2.49-5.93v-1.34h-1.53c-3.06,0-5.75.47-8.08,1.39-2.33.93-3.49,2.41-3.49,4.45Z"/>
    <path class="cls-1" d="m624.36,160.79v-49.24h15.87v8.32l-.19,3.06h.19c1.08-3.44,3.07-6.34,5.98-8.7,2.9-2.36,6.14-3.54,9.7-3.54.51,0,1.15.06,1.91.19v16.25c-.57-.19-1.69-.29-3.35-.29-4.46,0-7.84,1.31-10.13,3.92s-3.44,6.25-3.44,10.89v19.13h-16.54Z"/>
    <path class="cls-1" d="m662.32,136.12c0-7.4,2.33-13.53,6.98-18.41,4.65-4.87,10.87-7.31,18.64-7.31,7.08,0,12.64,2.22,16.69,6.64,4.05,4.44,6.07,10.15,6.07,17.16,0,1.14-.13,2.87-.38,5.16h-31.07c.57,2.87,1.93,5.06,4.06,6.55,2.14,1.5,4.61,2.25,7.41,2.25,4.08,0,8.61-1.66,13.58-4.97l6.12,11.57c-2.61,2.23-5.82,3.98-9.61,5.26-3.79,1.27-7.6,1.91-11.43,1.91-8.35,0-14.95-2.54-19.79-7.65-4.84-5.1-7.26-11.15-7.26-18.16Zm17.3-6.22h14.73c0-2.1-.62-3.86-1.87-5.26-1.24-1.4-2.88-2.1-4.92-2.1-4.21,0-6.86,2.45-7.94,7.36Z"/>
  </g>
  <g>
    <path class="cls-1" d="m484.22,127.1h-8.59v-8.59c0-4.83-3.91-8.74-8.74-8.74h0c-4.83,0-8.74,3.91-8.74,8.74v8.59h-8.59c-4.83,0-8.74,3.91-8.74,8.74h0c0,4.83,3.91,8.74,8.74,8.74h8.59v8.59c0,4.83,3.91,8.74,8.74,8.74h0c4.83,0,8.74-3.91,8.74-8.74v-8.59h8.59c4.83,0,8.74-3.91,8.74-8.74h0c0-4.83-3.91-8.74-8.74-8.74Z"/>
    <g>
      <path class="cls-1" d="m469.9,33.77c12.93.07,27.85,3.95,41.73,11.78,5.02,2.83,9.71,6.13,14.08,9.89,2.04,1.75,2.81,4,2.12,6.6-.7,2.63-2.5,4.25-5.17,4.77-1.98.39-3.77-.16-5.31-1.47-2.13-1.81-4.33-3.51-6.64-5.09-6.72-4.6-13.99-8.05-21.8-10.36-4.25-1.25-8.57-2.13-12.97-2.64-4.12-.48-8.25-.65-12.39-.46-7.78.34-15.36,1.8-22.7,4.4-8.98,3.19-17.1,7.89-24.36,14.07-1.94,1.65-4.13,2.13-6.51,1.24-2.38-.89-3.84-2.65-4.22-5.17-.35-2.36.47-4.35,2.29-5.91,3-2.57,6.16-4.93,9.48-7.08,9.34-6.05,19.45-10.24,30.33-12.57,6.27-1.34,12.62-2.01,22.03-2Z"/>
      <path class="cls-1" d="m509.68,79.03c-.12,2.47-1.34,4.48-3.76,5.64-2.39,1.14-4.71.85-6.79-.79-6.63-5.22-14.06-8.67-22.34-10.29-4.76-.93-9.57-1.2-14.4-.76-10.32.93-19.57,4.61-27.72,11.02-1.99,1.56-4.2,1.93-6.53.96-2.34-.98-3.74-2.8-4.01-5.33-.25-2.3.57-4.25,2.39-5.69,7.85-6.25,16.68-10.45,26.48-12.61,5.2-1.14,10.46-1.64,15.77-1.47,10.68.33,20.7,3.11,30.01,8.35,2.96,1.67,5.77,3.57,8.42,5.69,1.63,1.3,2.43,3,2.48,5.29Z"/>
      <path class="cls-1" d="m468.14,85.57c6.45.05,13.55,2.13,20.01,6.33,2.26,1.47,3.37,4.01,2.9,6.57-.49,2.63-2.52,4.72-5.15,5.23-1.76.35-3.4-.02-4.91-.99-2.67-1.73-5.54-2.96-8.65-3.59-7-1.43-13.53-.25-19.56,3.59-3.78,2.41-8.62.69-9.9-3.55-.81-2.7.21-5.59,2.57-7.16,4.17-2.77,8.72-4.64,13.63-5.65,2.58-.53,5.18-.79,9.07-.79Z"/>
    </g>
  </g>
</svg>