<?xml version="1.0" encoding="UTF-8"?>
<svg id="Capa_1" data-name="Capa 1" xmlns="http://www.w3.org/2000/svg" viewBox="0 0 354.33 354.33">
  <defs>
    <style>
      .cls-1 {
        fill: #f4f4f4;
      }
    </style>
  </defs>
  <path class="cls-1" d="m217.27,244.83h-19.88v-19.88c0-11.17-9.06-20.23-20.23-20.23h0c-11.17,0-20.23,9.06-20.23,20.23v19.88h-19.88c-11.17,0-20.23,9.06-20.23,20.23h0c0,11.17,9.06,20.23,20.23,20.23h19.88v19.88c0,11.17,9.06,20.23,20.23,20.23h0c11.17,0,20.23-9.06,20.23-20.23v-19.88h19.88c11.17,0,20.23-9.06,20.23-20.23h0c0-11.17-9.06-20.23-20.23-20.23Z"/>
  <g>
    <path class="cls-1" d="m184.14,28.94c29.9.17,64.43,9.13,96.53,27.26,11.6,6.55,22.46,14.19,32.56,22.87,4.72,4.06,6.51,9.26,4.91,15.27-1.61,6.08-5.77,9.83-11.96,11.04-4.59.89-8.72-.36-12.29-3.39-4.92-4.18-10.03-8.12-15.36-11.77-15.55-10.63-32.36-18.62-50.43-23.95-9.82-2.9-19.82-4.93-29.99-6.12-9.52-1.11-19.08-1.5-28.65-1.07-18,.8-35.52,4.15-52.51,10.19-20.78,7.38-39.54,18.26-56.34,32.54-4.48,3.81-9.55,4.93-15.07,2.87-5.5-2.05-8.89-6.13-9.75-11.97-.81-5.46,1.08-10.06,5.29-13.66,6.95-5.94,14.25-11.41,21.93-16.39,21.6-14,44.99-23.69,70.16-29.08,14.51-3.11,29.19-4.64,50.96-4.63Z"/>
    <path class="cls-1" d="m276.15,133.64c-.28,5.71-3.11,10.37-8.69,13.04-5.52,2.64-10.9,1.96-15.71-1.83-15.33-12.07-32.53-20.06-51.68-23.81-11.02-2.16-22.13-2.77-33.3-1.76-23.88,2.16-45.26,10.66-64.12,25.49-4.6,3.61-9.72,4.47-15.11,2.23-5.41-2.26-8.64-6.47-9.28-12.34-.58-5.32,1.31-9.82,5.52-13.17,18.15-14.46,38.57-24.18,61.24-29.17,12.02-2.64,24.18-3.79,36.48-3.4,24.71.77,47.87,7.18,69.42,19.32,6.85,3.86,13.34,8.26,19.48,13.16,3.76,3,5.63,6.94,5.74,12.23Z"/>
    <path class="cls-1" d="m180.07,148.77c14.92.12,31.34,4.93,46.29,14.64,5.22,3.39,7.8,9.27,6.7,15.19-1.13,6.07-5.83,10.91-11.92,12.11-4.08.81-7.87-.04-11.36-2.29-6.16-3.99-12.82-6.84-20.02-8.31-16.18-3.31-31.29-.57-45.23,8.31-8.75,5.57-19.94,1.61-22.9-8.2-1.88-6.23.48-12.92,5.95-16.56,9.65-6.41,20.17-10.74,31.52-13.07,5.96-1.22,11.99-1.83,20.97-1.82Z"/>
  </g>
</svg>